<svg width="34" height="34" viewBox="0 0 34 34" fill="none" xmlns="http://www.w3.org/2000/svg">
<g clip-path="url(#clip0_108_748)">
<path d="M10.4552 10.0919C3.29722 17.2502 0.501397 20.1022 0.426257 20.3272C0.191657 21.0497 0.210357 21.0776 3.49408 24.3709L6.53368 27.4292L6.5432 28.6018C6.55272 29.8778 6.61834 30.159 7.05932 30.7877C8.67296 33.0582 15.0714 34.3621 20.8878 33.6117C24.6312 33.1238 27.2954 31.9325 28.1305 30.3749C28.3464 29.9622 28.3464 29.9526 28.3933 25.3273L28.4402 20.6832L30.9171 18.8819C32.39 17.8218 33.4501 16.9772 33.5344 16.8273C33.7034 16.4897 33.7034 16.0296 33.5249 15.692C33.4406 15.5417 33.037 14.9603 32.6243 14.3973L31.8831 13.3654L32.2397 12.9526C32.4366 12.7276 32.6338 12.4178 32.662 12.2679C32.8119 11.5923 32.8966 11.6861 27.0047 5.77558L21.4039 0.175442H20.8878H20.3717L10.4552 10.0919ZM25.3816 7.50244L29.8288 12.0149L27.0894 14.7543L24.35 17.5032L23.3368 17.2404C21.376 16.7525 20.3346 16.6399 17.464 16.6399C14.5839 16.6399 13.6363 16.7433 11.5912 17.2499C9.56478 17.7565 8.08238 18.4977 7.24734 19.4171C6.61868 20.1113 6.53436 20.4772 6.53436 22.4006V24.0516L4.8925 22.4097C3.9915 21.5094 3.2503 20.74 3.2503 20.7026C3.2503 20.6183 20.7943 2.98996 20.8786 2.98996C20.9065 2.98996 22.9329 5.01636 25.3816 7.50244ZM30.4948 15.5519C30.6917 15.7583 30.8233 15.9647 30.7951 16.0116C30.7577 16.0681 29.9131 16.7059 28.8999 17.4376C27.1078 18.7418 27.0704 18.7697 26.7888 18.6572C26.6386 18.5915 26.526 18.5072 26.5355 18.479C26.6012 18.3382 29.9505 15.1861 30.0348 15.1861C30.0913 15.1861 30.2976 15.3551 30.4948 15.5519ZM9.8361 24.5585C13.8046 26.1157 20.4937 26.1627 24.772 24.6619C25.71 24.3243 25.8039 24.3052 26.0102 24.4368C26.2918 24.6245 26.5168 24.9812 26.5168 25.2341C26.5168 25.7407 25.2786 26.5571 23.7584 27.0541C19.0113 28.5926 11.1026 27.9643 8.8229 25.8628C8.2976 25.3749 8.26938 25.0655 8.72906 24.6058C8.90722 24.4276 9.0762 24.2869 9.10442 24.2869C9.13264 24.2865 9.46108 24.4083 9.8361 24.5585ZM9.75178 28.5552C11.9846 29.4654 15.9061 29.9625 19.096 29.7466C21.5916 29.5684 23.6085 29.1744 25.1847 28.5362L25.7756 28.3016L26.0946 28.5549C26.7137 29.0241 26.6294 29.5025 25.813 30.1216C23.4769 31.8855 16.816 32.4952 12.1719 31.3694C10.5583 30.9754 9.43252 30.4688 8.76646 29.8306C8.29726 29.3991 8.28808 29.0802 8.72906 28.6392C8.90722 28.4611 9.0762 28.3203 9.10442 28.3203C9.14182 28.3206 9.42334 28.4237 9.75178 28.5552Z" fill="#91C8A9"/>
</g>
<defs>
<clipPath id="clip0_108_748">
<rect width="34" height="34" fill="white"/>
</clipPath>
</defs>
</svg>
