<svg width="28" height="29" viewBox="0 0 28 29" fill="none" xmlns="http://www.w3.org/2000/svg">
<g clip-path="url(#clip0_130_683)">
<path d="M24.976 28.4519H3.02403C1.50923 28.4519 0.280029 27.1788 0.280029 25.6099V5.5448C0.280029 3.9759 1.50923 2.7028 3.02403 2.7028H7.14003V0.548096H8.51203V2.7028H19.488V0.548096H20.86V2.7028H24.976C26.4908 2.7028 27.72 3.9759 27.72 5.5448V25.6099C27.72 27.1788 26.4908 28.4519 24.976 28.4519ZM26.348 5.5448C26.348 4.7589 25.7348 4.1238 24.976 4.1238H20.86V6.119H19.488V4.1238H8.51203V6.119H7.14003V4.1238H3.02403C2.26523 4.1238 1.65203 4.7589 1.65203 5.5448V9.8774H26.348V5.5448ZM26.348 11.2984H1.65203V25.6128C1.65203 26.3987 2.26523 27.0338 3.02403 27.0338H24.976C25.7348 27.0338 26.348 26.3987 26.348 25.6128V11.2984ZM20.86 21.3237H23.604V24.1657H20.86V21.3237ZM20.86 15.5701H23.604V18.4121H20.86V15.5701ZM15.372 21.3237H18.116V24.1657H15.372V21.3237ZM15.372 15.5701H18.116V18.4121H15.372V15.5701ZM9.88403 21.3237H12.628V24.1657H9.88403V21.3237ZM9.88403 15.5701H12.628V18.4121H9.88403V15.5701ZM4.39603 21.3237H7.14003V24.1657H4.39603V21.3237ZM4.39603 15.5701H7.14003V18.4121H4.39603V15.5701Z" fill="#238854"/>
</g>
<defs>
<clipPath id="clip0_130_683">
<rect width="28" height="29" fill="white"/>
</clipPath>
</defs>
</svg>
