<svg width="40" height="40" viewBox="0 0 40 40" fill="none" xmlns="http://www.w3.org/2000/svg">
<path d="M2.75443 3.69961C1.35003 4.40681 0.410433 6.85161 0.400433 9.85241C0.390433 12.4892 0.834833 13.4088 2.23923 13.6712L2.84523 13.7924V18.2384L2.83523 22.684L2.46123 22.916C2.02683 23.1788 1.67323 23.6636 1.53163 24.1588C1.39003 24.6536 1.40043 34.4944 1.54163 35.0096C1.70323 35.5752 2.46123 36.3128 3.04683 36.4748C3.98643 36.7272 5.01683 36.3436 5.55243 35.5452L5.82523 35.1208L5.85563 29.6552L5.87603 24.1892L5.64363 23.7444C5.51243 23.492 5.19923 23.128 4.93643 22.936L4.46163 22.5824V18.1776V13.7724L4.98683 13.7016C6.34083 13.5196 6.83563 12.7316 6.95683 10.5596C7.09843 7.91241 6.40123 5.35641 5.22923 4.19441C4.43123 3.39641 3.67363 3.24521 2.75443 3.69961ZM4.11803 5.30601C4.48163 5.66961 4.93643 6.70041 5.13843 7.62961C5.39083 8.77121 5.39083 11.1356 5.13843 11.59C5.04763 11.772 4.87563 11.9636 4.77483 12.0244C4.50203 12.166 2.91603 12.1556 2.60283 12.0144C2.15843 11.8124 1.98643 11.1456 1.99643 9.75121C2.01643 7.86201 2.44083 6.25561 3.11803 5.46761C3.52203 4.99281 3.76443 4.95241 4.11803 5.30601ZM4.07763 24.3204C4.24923 24.472 4.25963 24.7652 4.25963 29.5336C4.25963 34.1004 4.23923 34.6056 4.08803 34.7772C3.87603 35.0196 3.50203 35.0096 3.24963 34.7568C3.05763 34.5648 3.04763 34.4236 3.04763 29.574C3.04763 25.2296 3.06803 24.5728 3.20923 24.3708C3.39083 24.1084 3.81523 24.078 4.07763 24.3204Z" fill="#238854"/>
<path d="M35.9032 4.72C35.8324 4.7504 35.7112 4.902 35.6304 5.0532C35.5092 5.2956 35.4788 5.9424 35.4788 8.7408C35.4788 11.0344 35.4484 12.1256 35.3776 12.1256C35.1756 12.1256 34.7712 11.6004 34.7008 11.2264C34.5592 10.5796 34.63 8.5896 34.822 7.7308C35.1252 6.3668 35.1252 6.3064 34.832 6.0232C34.5492 5.7304 34.1248 5.6796 33.842 5.902C33.5792 6.094 33.3872 6.6092 33.2156 7.5892C32.842 9.6704 32.9328 11.6204 33.438 12.6308C33.7816 13.3076 34.0544 13.52 34.8524 13.6712L35.4788 13.7924V18.2384L35.4688 22.684L35.0344 22.9468C34.7212 23.1388 34.5292 23.3712 34.3372 23.7552L34.0644 24.2908V29.5444C34.0644 35.4748 34.044 35.2628 34.8524 35.9904C35.9132 36.9504 37.56 36.6472 38.2268 35.374L38.5096 34.8384V29.564V24.3L38.2672 23.7848C38.0348 23.2796 37.6612 22.9056 37.2872 22.7844C37.1052 22.724 37.0952 22.5724 37.0952 18.248V13.7724L37.6204 13.7016C37.9032 13.6612 38.2668 13.56 38.4184 13.4792C39.0952 13.1356 39.4792 12.206 39.5804 10.6704C39.6916 9.1448 39.3076 6.5788 38.8732 5.9116C38.6612 5.5884 38.176 5.4872 37.8428 5.7096C37.4184 5.9824 37.388 6.2348 37.6608 7.2656C37.964 8.4476 38.0852 10.2156 37.9032 11.0544C37.792 11.62 37.4588 12.1252 37.196 12.1252C37.1252 12.1252 37.0948 10.9936 37.0948 8.6396V5.144L36.8424 4.9016C36.6104 4.6596 36.2264 4.5888 35.9032 4.72ZM36.7112 24.3204C36.8828 24.472 36.8932 24.7652 36.8932 29.5336C36.8932 34.1004 36.8728 34.6056 36.7216 34.7772C36.5196 34.9996 36.2064 35.0096 35.9032 34.7976L35.6808 34.646V29.584C35.6808 25.0072 35.7012 24.502 35.8524 24.3304C36.0548 24.1084 36.4688 24.098 36.7112 24.3204Z" fill="#238854"/>
<path d="M18.2124 6.3668C12.9284 7.1044 8.67479 10.5696 6.95719 15.5204C6.39159 17.1672 6.23999 18.1168 6.23999 20.0064C6.23999 21.1784 6.29039 21.9364 6.41159 22.5524C7.39159 27.4624 10.8572 31.4432 15.5044 32.9892C17.232 33.5652 18.0504 33.6964 19.9196 33.6864C21.1524 33.6864 21.8292 33.646 22.496 33.5044C27.4164 32.484 31.276 29.1396 32.882 24.492C33.448 22.8452 33.5992 21.8956 33.5992 20.006C33.6092 18.1368 33.478 17.3184 32.902 15.5908C31.7704 12.196 29.2852 9.3368 26.0216 7.7C25.1628 7.2656 23.506 6.71 22.526 6.518C21.5364 6.3264 19.1216 6.2356 18.2124 6.3668ZM21.5968 7.9936C23.3244 8.236 25.4764 9.0848 26.8908 10.0848C31.8112 13.5704 33.448 20.1476 30.71 25.4924C27.6488 31.4636 20.4552 33.8176 14.464 30.8168C8.49279 27.8264 6.09839 20.552 9.10919 14.5504C11.4128 9.9536 16.4948 7.2864 21.5968 7.9936Z" fill="#238854"/>
<path d="M18.1012 10.7516C14.8784 11.4388 12.1604 13.7724 11.0796 16.7932C10.6248 18.0764 10.4836 19.0464 10.5544 20.4908C10.6656 22.8752 11.504 24.8152 13.1912 26.5528C14.3936 27.8056 15.8988 28.6744 17.7176 29.1696C18.6168 29.422 21.2232 29.422 22.1228 29.1696C25.6588 28.1996 28.114 25.7444 29.084 22.2084C29.3368 21.3092 29.3368 18.7028 29.084 17.8036C28.1344 14.318 25.6892 11.8428 22.2948 10.8828C21.3644 10.6304 19.0508 10.5596 18.1012 10.7516ZM21.7988 12.4288C25.3048 13.3076 27.6992 16.3892 27.6992 20.0064C27.6992 24.3712 24.2844 27.786 19.9196 27.786C15.5552 27.786 12.14 24.3708 12.14 20.0064C12.14 16.4096 14.5244 13.328 18 12.4288C19.0508 12.166 20.728 12.156 21.7988 12.4288Z" fill="#238854"/>
</svg>
