<svg width="23" height="25" viewBox="0 0 23 25" fill="none" xmlns="http://www.w3.org/2000/svg">
<path d="M4.27273 19.7672C7.32401 22.8694 11.149 23.8223 12.958 24.0106C13.6772 24.1214 14.1349 23.7336 14.1676 23.1686C14.2112 22.6479 13.8952 22.2268 13.2522 22.0939C11.6067 21.8169 8.2176 21.0081 5.6458 18.3712C1.47209 14.1389 0.64388 7.56876 4.08747 4.05659C6.84452 1.26458 11.4214 1.54156 14.7997 3.39182L16.2272 1.96258C11.89 -0.718641 6.13619 -0.807276 2.72529 2.66058C-1.35035 6.81536 -0.870864 14.5377 4.27273 19.7672ZM20.8368 3.69097L21.7631 2.73814C22.2426 2.23956 22.2862 1.5194 21.8067 1.05407L21.4798 0.732763C21.0548 0.333904 20.3682 0.367142 19.8997 0.832478L18.9625 1.78531L20.8368 3.69097ZM10.19 14.5045L20.0304 4.51085L18.1452 2.60518L8.31568 12.5988L7.3676 14.9255C7.24773 15.2357 7.55286 15.5349 7.84709 15.4241L10.19 14.5045ZM8.41375 16.388C11.89 20.0663 17.8727 21.4402 21.142 18.1275C23.8009 15.413 23.5721 10.5934 20.6734 6.42758L19.2785 7.84575C21.4144 11.0477 21.8067 14.6596 19.7689 16.7314C17.2625 19.2797 13.1759 18.1275 10.5061 15.5349L8.41375 16.388Z" fill="#BA9852"/>
</svg>
