<svg width="80" height="80" viewBox="0 0 80 80" fill="none" xmlns="http://www.w3.org/2000/svg">
<path d="M65.1599 56.96C65.1599 59.808 63.7359 61.224 60.8879 61.224H44.2719V74.704C44.2719 76.352 43.9119 77.512 43.2079 78.184C42.4959 78.856 41.3919 79.192 39.8959 79.192C38.4719 79.192 37.3679 78.856 36.5839 78.184C35.7999 77.512 35.4079 76.352 35.4079 74.704V61.232H19.3359C17.6159 61.232 16.4319 60.896 15.7999 60.224C15.1599 59.552 14.8479 58.464 14.8479 56.968C14.8479 55.472 15.1839 54.368 15.8559 53.656C16.5279 52.944 17.6879 52.592 19.3359 52.592H35.3999V46.304C32.7039 45.784 30.2159 44.864 27.9279 43.552C25.6399 42.24 23.6799 40.616 22.0319 38.664C20.3839 36.72 19.1119 34.472 18.2159 31.928C17.3119 29.384 16.8639 26.648 16.8639 23.728C16.8639 20.656 17.4239 17.736 18.5519 14.968C19.6799 12.2 21.2479 9.768 23.2719 7.664C25.2959 5.568 27.7039 3.904 30.5199 2.664C33.3199 1.416 36.4399 0.800003 39.8879 0.800003C43.4799 0.800003 46.7039 1.44 49.5439 2.712C52.3919 3.984 54.8079 5.672 56.7839 7.768C58.7679 9.864 60.2879 12.296 61.3359 15.072C62.3839 17.84 62.9119 20.728 62.9119 23.72C62.9119 26.64 62.4799 29.392 61.6239 31.976C60.7599 34.56 59.5439 36.824 57.9759 38.776C56.3999 40.728 54.4559 42.352 52.1359 43.664C49.8159 44.976 47.1919 45.856 44.2719 46.304V52.592H60.8959C63.7359 52.576 65.1599 54.04 65.1599 56.96ZM53.8159 23.824C53.8159 19.408 52.4879 15.928 49.8319 13.376C47.1679 10.832 43.8559 9.56 39.8879 9.56C35.6959 9.56 32.3279 10.904 29.7759 13.6C27.2319 16.296 25.9599 19.704 25.9599 23.824C25.9599 25.848 26.3119 27.72 27.0239 29.44C27.7359 31.168 28.7119 32.68 29.9439 33.992C31.1839 35.304 32.6559 36.336 34.3839 37.08C36.1039 37.832 37.9359 38.2 39.8879 38.2C44.1599 38.2 47.5439 36.848 50.0559 34.16C52.5599 31.464 53.8159 28.016 53.8159 23.824Z" fill="white"/>
</svg>
