<svg width="29" height="29" viewBox="0 0 29 29" fill="none" xmlns="http://www.w3.org/2000/svg">
<g clip-path="url(#clip0_130_724)">
<path d="M13.967 0.82332C13.7895 0.852901 13.5111 0.94164 13.3453 1.01878C13.0196 1.16668 0.952979 10.5514 0.544659 10.9716C0.307729 11.2085 0.290039 11.2558 0.290039 11.5458C0.290039 12.2267 0.888019 12.6588 1.47411 12.4042C1.58663 12.3569 4.44052 10.1663 7.80945 7.5374C11.1784 4.90275 14.0204 2.7002 14.1152 2.64104C14.3756 2.48705 14.6659 2.50474 14.9797 2.7002C15.1218 2.79503 17.9934 4.88506 21.3504 7.34803C26.2349 10.9182 27.5138 11.8303 27.6974 11.8599C28.0172 11.9132 28.4256 11.7296 28.5914 11.4631C28.7335 11.2323 28.7512 10.7764 28.6268 10.5337C28.5735 10.4331 27.7151 9.76982 26.377 8.78701L24.2101 7.20622V5.13388C24.2101 2.80112 24.1982 2.71818 23.8311 2.56419C23.6713 2.49314 23.3337 2.47545 22.3747 2.47545C21.0485 2.47545 20.7939 2.51692 20.6634 2.75965C20.628 2.8307 20.5984 3.22742 20.5984 3.6891C20.5984 4.37002 20.5866 4.49443 20.5155 4.47065C20.4682 4.45296 19.4202 3.70099 18.1885 2.79503C16.9569 1.89516 15.8201 1.09592 15.6545 1.01878C15.3645 0.882481 14.7309 0.752271 14.4409 0.764161C14.3579 0.77025 14.1448 0.79374 13.967 0.82332Z" fill="#238854"/>
<path d="M13.9908 5.5422C13.8131 5.60745 13.3633 5.89165 12.8955 6.23501C11.1842 7.50202 2.91891 13.6834 2.7945 13.7898L2.6582 13.9023V20.0245C2.6582 23.9146 2.68198 26.2592 2.71736 26.4605C2.84757 27.1533 3.26198 27.6979 3.88954 28.0059L4.28626 28.2013L7.40666 28.219L10.5329 28.2367L10.5448 23.3818C10.5624 18.5861 10.5624 18.5267 10.6869 18.3669C10.7521 18.2781 10.8823 18.1479 10.9711 18.0827C11.1308 17.9643 11.208 17.9583 14.1326 17.9406C17.4839 17.9229 17.4009 17.9168 17.6793 18.3373L17.8156 18.5385V23.3876V28.2306L21.2675 28.2187L24.7133 28.2011L25.0508 28.0413C25.6845 27.7452 26.152 27.1472 26.2825 26.4605C26.3474 26.1052 26.3654 15.0809 26.3002 14.2874L26.2648 13.8139L20.7997 9.72835C17.0341 6.91593 15.2459 5.61354 15.0508 5.54249C14.6894 5.41199 14.3696 5.41199 13.9908 5.5422ZM20.3201 10.1428L25.6903 14.163L25.6784 20.3858L25.6607 26.6026L25.5128 26.8691C25.3174 27.2124 24.9444 27.4908 24.5654 27.5738C24.3699 27.6153 23.2392 27.6387 21.3681 27.6387H18.467V23.1507C18.467 18.1714 18.4789 18.3489 18.0763 17.8811C17.9638 17.7509 17.7388 17.5731 17.5671 17.4902L17.2591 17.3362H14.2098H11.1546L10.8585 17.4783C10.5033 17.65 10.2249 17.9284 10.0651 18.2836C9.94677 18.5441 9.94068 18.6508 9.94068 23.0913V27.6385H7.33561C5.68377 27.6385 4.62382 27.6147 4.43445 27.5735C4.05542 27.4906 3.68248 27.2122 3.48702 26.8688L3.33912 26.6023L3.32143 20.3856L3.30954 14.1627L8.50199 10.2846C11.3617 8.14726 13.807 6.32346 13.9372 6.24081C14.1445 6.09871 14.2214 6.08102 14.5589 6.09871L14.9438 6.1164L20.3201 10.1428Z" fill="#238854"/>
</g>
<defs>
<clipPath id="clip0_130_724">
<rect width="29" height="29" fill="white"/>
</clipPath>
</defs>
</svg>
