<svg width="28" height="28" viewBox="0 0 28 28" fill="none" xmlns="http://www.w3.org/2000/svg">
<path d="M25.1496 26.4348H2.85043C1.43363 26.4348 0.280029 25.2812 0.280029 23.8644V10.1528C0.280029 8.7388 1.42803 7.588 2.84203 7.5824L3.69883 7.5852V4.1384C3.69883 2.7216 4.85243 1.568 6.26923 1.568L6.44843 1.5876L25.62 5.4404C27.5464 5.9556 27.7172 7.434 27.706 8.0668L27.7228 23.8616C27.72 25.2812 26.5664 26.4348 25.1496 26.4348ZM6.19643 3.2844C5.75963 3.3208 5.41243 3.6904 5.41243 4.1384V7.5824H24.2788C24.9648 7.5908 25.1132 7.1148 25.1048 7.112L6.19643 3.2844ZM26.0064 8.442C26.0064 9.0104 25.1216 9.296 24.2816 9.296H2.85043C2.37723 9.296 1.99363 9.6796 1.99363 10.1528V23.8616C1.99363 24.3348 2.37723 24.7184 2.85043 24.7184H25.1468C25.62 24.7184 26.0036 24.3348 26.0036 23.8616V8.442H26.0064ZM5.42363 18.7264C4.47723 18.7264 3.71003 17.9592 3.71003 17.0128C3.71003 16.0664 4.47723 15.2992 5.42363 15.2992C6.37003 15.2992 7.13723 16.0664 7.13723 17.0128C7.13723 17.9592 6.37003 18.7264 5.42363 18.7264Z" fill="#91C8A9"/>
</svg>
