<svg width="82" height="82" viewBox="0 0 82 82" fill="none" xmlns="http://www.w3.org/2000/svg">
<path d="M63.5993 23.4192C63.5993 10.9388 53.4805 0.820007 41.0001 0.820007C28.5197 0.820007 18.4009 10.9388 18.4009 23.4192C18.4009 34.9402 27.0355 44.4358 38.1793 45.8216V69.3884L34.5713 65.7804C33.2675 64.4766 31.1601 64.4766 29.8645 65.7804C28.5607 67.0842 28.5607 69.1916 29.8645 70.4872L38.4089 79.0316C38.8845 80.2862 40.0899 81.18 41.5167 81.18C42.8041 81.18 43.9029 80.442 44.4605 79.376L53.3493 70.4872C54.6531 69.1834 54.6531 67.0842 53.3493 65.7804C52.0455 64.4766 49.9381 64.4766 48.6425 65.7804L44.8459 69.577V45.6658C55.4895 43.8372 63.5993 34.5876 63.5993 23.4192ZM41.0001 39.5732C32.0703 39.5732 24.8379 32.3326 24.8379 23.411C24.8379 14.4812 32.0703 7.24881 41.0001 7.24881C49.9299 7.24881 57.1623 14.4812 57.1623 23.411C57.1623 32.3408 49.9217 39.5732 41.0001 39.5732Z" fill="white"/>
</svg>
