<svg width="28" height="28" viewBox="0 0 28 28" fill="none" xmlns="http://www.w3.org/2000/svg">
<g clip-path="url(#clip0_130_684)">
<path d="M11.1412 12.8576H1.99643C1.02483 12.8576 0.280029 12.1156 0.280029 11.1412V1.9964C0.280029 1.022 1.02203 0.279999 1.99643 0.279999H11.144C12.1156 0.279999 12.8604 1.022 12.8604 1.9964V11.144C12.8576 12.1128 12.1128 12.8576 11.1412 12.8576ZM1.99643 1.4224C1.65203 1.4224 1.42243 1.652 1.42243 1.9964V11.144C1.42243 11.4856 1.65203 11.7152 1.99363 11.7152H11.1412C11.4828 11.7152 11.7124 11.4856 11.7124 11.144V1.9964C11.7124 1.652 11.4828 1.4252 11.1412 1.4252H1.99643V1.4224Z" fill="#238854"/>
<path d="M26.0065 12.8576H16.8589C15.8873 12.8576 15.1425 12.1156 15.1425 11.1412V1.9964C15.1425 1.0248 15.8845 0.279999 16.8589 0.279999H26.0065C26.9781 0.279999 27.7229 1.022 27.7229 1.9964V11.144C27.7201 12.1128 26.9781 12.8576 26.0065 12.8576ZM16.8589 1.4224C16.5145 1.4224 16.2877 1.652 16.2877 1.9936V11.1412C16.2877 11.4828 16.5173 11.7124 16.8589 11.7124H26.0065C26.3481 11.7124 26.5777 11.4828 26.5777 11.1412V1.9964C26.5777 1.652 26.3481 1.4252 26.0065 1.4252H16.8589V1.4224Z" fill="#238854"/>
<path d="M11.1412 27.72H1.99643C1.02203 27.72 0.280029 26.978 0.280029 26.0064V16.8588C0.280029 15.8872 1.02203 15.1424 1.99643 15.1424H11.144C12.1156 15.1424 12.8604 15.8844 12.8604 16.8588V26.0064C12.8576 26.978 12.1128 27.72 11.1412 27.72ZM1.99643 16.2876C1.65203 16.2876 1.42523 16.5172 1.42523 16.8588V26.0064C1.42523 26.348 1.65483 26.5776 1.99643 26.5776H11.144C11.4856 26.5776 11.7152 26.348 11.7152 26.0064V16.8588C11.7152 16.5144 11.4856 16.2876 11.144 16.2876H1.99643Z" fill="#238854"/>
<path d="M26.0065 27.72H16.8589C15.8873 27.72 15.1425 26.978 15.1425 26.0036V16.8588C15.1425 15.8872 15.8845 15.1424 16.8589 15.1424H26.0065C26.9781 15.1424 27.7229 15.8844 27.7229 16.8588V26.0064C27.7201 26.978 26.9781 27.72 26.0065 27.72ZM16.8589 16.2876C16.5145 16.2876 16.2877 16.5172 16.2877 16.8588V26.0064C16.2877 26.348 16.5173 26.5776 16.8589 26.5776H26.0065C26.3481 26.5776 26.5777 26.348 26.5777 26.0064V16.8588C26.5777 16.5144 26.3481 16.2876 26.0065 16.2876H16.8589Z" fill="#238854"/>
</g>
<defs>
<clipPath id="clip0_130_684">
<rect width="28" height="28" fill="white"/>
</clipPath>
</defs>
</svg>
