<svg width="56" height="56" viewBox="0 0 56 56" fill="none" xmlns="http://www.w3.org/2000/svg">
<g clip-path="url(#clip0_17_429)" filter="url(#filter0_d_17_429)">
<path d="M30.5632 5.8032C30.5632 6.0528 30.2416 6.2496 29.8432 6.2496H5.42078C5.02238 6.2496 4.70078 6.048 4.70078 5.8032C4.70078 5.5536 5.02238 5.3568 5.42078 5.3568H29.848C30.2416 5.3568 30.5632 5.5536 30.5632 5.8032ZM5.65118 47.4816H4.47998V1.5648C4.47998 0.955199 4.74398 0.465599 5.06558 0.465599C5.38718 0.465599 5.65118 0.959999 5.65118 1.5648V47.4816ZM28.3168 13.7808C30.4144 13.7808 32.5552 11.976 32.5552 10.0656C32.5552 8.1552 30.52 6.2112 28.4176 6.2112C26.32 6.2112 24.232 8.2032 24.232 10.1136C24.232 12.024 26.2192 13.7808 28.3168 13.7808ZM36.5152 24.84V19.1088C36.5152 17.2368 36.6496 17.4144 36.5152 16.2432C36.0016 14.808 34.9696 14.3328 33.9376 14.3328H29.3008C27.232 14.3328 26.224 14.328 24.1648 14.328C23.1376 14.328 22.4656 14.2656 21.6976 14.9088C20.656 16.0032 20.7568 16.0992 20.7568 19.1568V24.9888C20.7568 26.496 20.4832 28.8432 22.1104 28.8432C23.656 28.8432 23.6416 27.8208 23.6416 26.2944C23.6416 24.144 23.6368 23.5824 23.6368 22.3104C23.6368 20.9184 23.5504 20.6832 23.8528 20.6832C24.1552 20.6832 24.1552 20.7024 24.1552 22.1808C24.1552 23.5488 24.1456 42.8208 24.1456 43.9344C24.1456 44.8896 24.6928 45.912 26.248 45.912C27.7936 45.912 28.4416 45.072 28.4416 44.1168V34.0944C28.4416 33.1392 28.4752 32.6784 28.7296 32.6784C28.9888 32.6784 28.9552 33.144 28.9552 34.0944V44.1216C28.9552 44.7168 29.6368 46.0032 31.1824 46.0032C32.2144 46.0032 33.16 44.7744 33.16 44.1408C33.16 40.32 33.184 23.328 33.184 22.1232C33.184 21.4704 33.1264 20.6448 33.3856 20.6448C33.6496 20.6448 33.6448 20.8704 33.6448 21.8064V25.488C33.6448 27.9984 34.0672 28.6608 35.0944 28.6608C36.6448 28.6608 36.5152 26.208 36.5152 24.84ZM51.52 46.44C51.52 47.0448 51.0352 47.5392 50.4304 47.5392H5.89598C5.29598 47.5392 4.80638 47.0496 4.80638 46.44C4.80638 45.8352 5.29118 45.3408 5.89598 45.3408H50.4304C51.0352 45.3408 51.52 45.8304 51.52 46.44ZM9.98078 9.048H5.40158V10.128H9.98078C10.3696 10.128 10.6816 9.888 10.6816 9.5904C10.6816 9.2928 10.3696 9.048 9.98078 9.048ZM9.98078 12.2832H5.40158V13.3584H9.98078C10.3696 13.3584 10.6816 13.1184 10.6816 12.8208C10.6816 12.5232 10.3696 12.2832 9.98078 12.2832ZM9.98078 15.5136H5.40158V16.5888H9.98078C10.3696 16.5888 10.6816 16.3488 10.6816 16.0512C10.6816 15.7536 10.3696 15.5136 9.98078 15.5136ZM9.98078 18.7488H5.40158V19.824H9.98078C10.3696 19.824 10.6816 19.584 10.6816 19.2864C10.6816 18.9888 10.3696 18.7488 9.98078 18.7488ZM9.98078 21.9792H5.40158V23.0544H9.98078C10.3696 23.0544 10.6816 22.8144 10.6816 22.5168C10.6816 22.2192 10.3696 21.9792 9.98078 21.9792ZM11.6512 25.2096H5.40158V26.2896H11.6512C12.1792 26.2896 12.6112 26.0496 12.6112 25.752C12.6112 25.4544 12.184 25.2096 11.6512 25.2096ZM9.98078 28.4448H5.40158V29.52H9.98078C10.3696 29.52 10.6816 29.28 10.6816 28.9824C10.6816 28.6848 10.3696 28.4448 9.98078 28.4448ZM9.98078 31.6752H5.40158V32.7504H9.98078C10.3696 32.7504 10.6816 32.5104 10.6816 32.2128C10.6816 31.92 10.3696 31.6752 9.98078 31.6752ZM9.98078 34.9104H5.40158V35.9904H9.98078C10.3696 35.9904 10.6816 35.7504 10.6816 35.4528C10.6816 35.1504 10.3696 34.9104 9.98078 34.9104ZM9.98078 38.1408H5.40158V39.216H9.98078C10.3696 39.216 10.6816 38.976 10.6816 38.6784C10.6816 38.3808 10.3696 38.1408 9.98078 38.1408ZM9.98078 41.376H5.40158V42.4512H9.98078C10.3696 42.4512 10.6816 42.2112 10.6816 41.9136C10.6816 41.616 10.3696 41.376 9.98078 41.376Z" fill="black"/>
</g>
<defs>
<filter id="filter0_d_17_429" x="0" y="0" width="56" height="56" filterUnits="userSpaceOnUse" color-interpolation-filters="sRGB">
<feFlood flood-opacity="0" result="BackgroundImageFix"/>
<feColorMatrix in="SourceAlpha" type="matrix" values="0 0 0 0 0 0 0 0 0 0 0 0 0 0 0 0 0 0 127 0" result="hardAlpha"/>
<feOffset dy="4"/>
<feGaussianBlur stdDeviation="2"/>
<feComposite in2="hardAlpha" operator="out"/>
<feColorMatrix type="matrix" values="0 0 0 0 0 0 0 0 0 0 0 0 0 0 0 0 0 0 0.25 0"/>
<feBlend mode="normal" in2="BackgroundImageFix" result="effect1_dropShadow_17_429"/>
<feBlend mode="normal" in="SourceGraphic" in2="effect1_dropShadow_17_429" result="shape"/>
</filter>
<clipPath id="clip0_17_429">
<rect width="48" height="48" fill="white" transform="translate(4)"/>
</clipPath>
</defs>
</svg>
