<svg width="55" height="46" viewBox="0 0 55 46" fill="none" xmlns="http://www.w3.org/2000/svg">
<path d="M14.8648 36H40.1352C43.3439 36 45 34.3047 45 31.0941V14.8909C45 11.6803 43.3439 10 40.1352 10H14.8648C11.6709 10 10 11.6803 10 14.8909V31.0941C10 34.3197 11.6709 36 14.8648 36ZM12.9425 15.161C12.9425 13.7207 13.6967 13.0006 15.057 13.0006H39.943C41.3033 13.0006 42.0575 13.7207 42.0575 15.161V16.2412H12.9425V15.161ZM15.057 32.9994C13.6967 32.9994 12.9425 32.2793 12.9425 30.839V19.7669H42.0575V30.839C42.0575 32.2793 41.3033 32.9994 39.943 32.9994H15.057ZM17.068 30.2839H20.6907C21.5632 30.2839 22.1546 29.6988 22.1546 28.8586V26.0681C22.1546 25.2279 21.5632 24.6428 20.6907 24.6428H17.068C16.2104 24.6428 15.6189 25.2279 15.6189 26.0681V28.8586C15.6189 29.6988 16.2104 30.2839 17.068 30.2839Z" fill="#91C8A9"/>
</svg>
